<?xml version="1.0" encoding="iso-8859-1"?>
<!--
  - MikoPBX - free phone system for small business
  - Copyright © 2017-2023 Alexey Portnov and Nikolay Beketov
  -
  - This program is free software: you can redistribute it and/or modify
  - it under the terms of the GNU General Public License as published by
  - the Free Software Foundation; either version 3 of the License, or
  - (at your option) any later version.
  -
  - This program is distributed in the hope that it will be useful,
  - but WITHOUT ANY WARRANTY; without even the implied warranty of
  - MERCHANTABILITY or FITNESS FOR A PARTICULAR PURPOSE.  See the
  - GNU General Public License for more details.
  -
  - You should have received a copy of the GNU General Public License along with this program.
  - If not, see <https://www.gnu.org/licenses/>.
  -->

<!-- Uploaded to: SVG Repo, www.svgrepo.com, Generator: SVG Repo Mixer Tools -->
<svg height="800px" width="800px" version="1.1" id="Layer_1" xmlns="http://www.w3.org/2000/svg" xmlns:xlink="http://www.w3.org/1999/xlink" 
	 viewBox="0 0 512 512" xml:space="preserve">
<path style="fill:#5A6B96;" d="M409.52,270.851v17.538c0,19.221-15.578,34.8-34.789,34.8H45.052
	c-19.211,0-34.789-15.578-34.789-34.8v-17.538H409.52z"/>
<path style="fill:#EFEFEF;" d="M409.52,72.428v198.423H10.262V72.428c0-19.211,15.578-34.789,34.789-34.789H374.73
	C393.942,37.638,409.52,53.217,409.52,72.428z"/>
<path style="fill:#264087;" d="M272.698,403.935c-41.87,0-83.74,0-125.61,0c9.795-26.75,14.199-54,14.45-80.749
	c32.236,0,64.472,0,96.708,0C258.5,349.936,262.902,377.185,272.698,403.935z"/>
<g>
	<path style="fill:#FBC640;" d="M432.677,405.3h-44.7c-38.141,0-69.061,30.919-69.061,69.061l0,0h182.821l0,0
		C501.738,436.221,470.818,405.3,432.677,405.3z"/>
	<path style="fill:#FBC640;" d="M410.327,414.376L410.327,414.376c-33.007,0-59.765-26.757-59.765-59.764v-31.2
		c0-33.007,26.757-59.764,59.764-59.764l0,0c33.007,0,59.764,26.757,59.764,59.764v31.2
		C470.092,387.619,443.333,414.376,410.327,414.376z"/>
</g>
<g>
	<path style="fill:#231F20;" d="M368.475,68.426H246.688c-5.667,0-10.262,4.594-10.262,10.262c0,5.668,4.595,10.262,10.262,10.262
		h121.787c5.667,0,10.262-4.594,10.262-10.262C378.737,73.021,374.141,68.426,368.475,68.426z"/>
	<path style="fill:#231F20;" d="M185.236,88.951h4.105c5.667,0,10.262-4.594,10.262-10.262c0-5.668-4.595-10.262-10.262-10.262
		h-4.105c-5.667,0-10.262,4.594-10.262,10.262C174.973,84.357,179.569,88.951,185.236,88.951z"/>
	<path style="fill:#231F20;" d="M141.621,78.689c0-5.668-4.595-10.262-10.262-10.262H51.312c-5.667,0-10.262,4.594-10.262,10.262
		c0,5.668,4.595,10.262,10.262,10.262h80.046C137.025,88.951,141.621,84.356,141.621,78.689z"/>
	<path style="fill:#231F20;" d="M324.56,177.482H178.046c-4.768-23.393-25.499-41.049-50.279-41.049
		c-28.293,0-51.312,23.018-51.312,51.312s23.019,51.312,51.312,51.312c24.78,0,45.512-17.656,50.279-41.049h97.768v30.787
		c0,5.668,4.595,10.262,10.262,10.262c5.667,0,10.262-4.594,10.262-10.262v-30.787h17.959v17.104
		c0,5.668,4.595,10.262,10.262,10.262c5.667,0,10.262-4.594,10.262-10.262v-27.367C334.822,182.076,330.227,177.482,324.56,177.482z
		 M127.767,218.531c-16.976,0-30.787-13.811-30.787-30.787s13.811-30.787,30.787-30.787s30.787,13.811,30.787,30.787
		S144.743,218.531,127.767,218.531z"/>
	<path style="fill:#231F20;" d="M462.736,400.983c10.949-12.361,17.616-28.598,17.616-46.371v-31.2
		c0-35.405-26.416-64.737-60.571-69.371V72.428c0-24.842-20.21-45.052-45.051-45.052H45.052C20.21,27.376,0,47.586,0,72.428v215.961
		c0,24.847,20.21,45.062,45.052,45.062h105.906c-1.08,20.814-4.832,40.999-11.177,60.222h-26.338
		c-5.667,0-10.262,4.594-10.262,10.262c0,5.668,4.595,10.262,10.262,10.262h192.902c5.667,0,10.262-4.594,10.262-10.262
		c0-5.668-4.595-10.262-10.262-10.262h-26.337c-6.345-19.224-10.098-39.41-11.177-60.222h71.47v21.161
		c0,17.772,6.667,34.009,17.616,46.371c-28.872,11.869-49.263,40.278-49.263,73.379c0,5.668,4.595,10.262,10.262,10.262h182.822
		c5.667,0,10.262-4.594,10.262-10.262C512,441.26,491.61,412.852,462.736,400.983z M459.828,323.411v31.2
		c0,27.296-22.207,49.502-49.502,49.502c-27.295,0-49.502-22.206-49.502-49.501v-31.2c0-27.296,22.207-49.502,49.502-49.502
		C437.621,273.911,459.828,296.117,459.828,323.411z M20.525,72.428c0-13.524,11.003-24.527,24.527-24.527H374.73
		c13.524,0,24.526,11.002,24.526,24.527v181.841c-7.007,1.118-13.667,3.281-19.824,6.32H20.525V72.428z M20.525,288.389v-7.276
		h334.041c-6.936,9.122-11.695,19.985-13.479,31.813H45.052C31.528,312.926,20.525,301.919,20.525,288.389z M258.476,393.673
		h-97.167c5.793-19.342,9.21-39.513,10.201-60.222h76.766C249.266,354.16,252.682,374.328,258.476,393.673z M330.075,464.099
		c4.271-24.169,23.359-43.287,47.51-47.613c9.778,5.195,20.92,8.151,32.742,8.151s22.964-2.957,32.742-8.151
		c24.15,4.326,43.237,23.444,47.51,47.613H330.075z"/>
</g>
</svg>